<svg xmlns="http://www.w3.org/2000/svg" xmlns:xlink="http://www.w3.org/1999/xlink" width="233" height="184.417" viewBox="0 0 233 184.417"><defs><linearGradient id="a" x1="0.5" y1="1" x2="0.5" gradientUnits="objectBoundingBox"><stop offset="0" stop-color="gray" stop-opacity="0.251"/><stop offset="0.54" stop-color="gray" stop-opacity="0.122"/><stop offset="1" stop-color="gray" stop-opacity="0.102"/></linearGradient><linearGradient id="d" x1="0.5" x2="0.5" xlink:href="#a"/></defs><g transform="translate(12.941)" opacity="0.5"><rect width="82.695" height="125.004" rx="4.5" fill="url(#a)"/></g><rect width="80.575" height="122.476" rx="4.5" transform="translate(14 0.918)" fill="#f2f2f2"/><g transform="translate(22.058 23.481)" opacity="0.5"><rect width="16.115" height="14.504" rx="4.5" fill="#00aa67"/></g><rect width="43.511" height="1.613" rx="0.806" transform="translate(43.008 23.481)" fill="#e0e0e0"/><rect width="36.169" height="1.613" rx="0.806" transform="translate(43.008 28.314)" fill="#e0e0e0"/><g transform="translate(22.058 46.041)" opacity="0.5"><rect width="16.115" height="14.504" rx="4.5" fill="#00aa67"/></g><rect width="43.511" height="1.613" rx="0.806" transform="translate(43.008 46.041)" fill="#e0e0e0"/><rect width="43.511" height="1.613" rx="0.806" transform="translate(43.008 50.874)" fill="#e0e0e0"/><g transform="translate(22.058 68.601)" opacity="0.5"><rect width="16.115" height="14.504" rx="4.5" fill="#00aa67"/></g><rect width="43.511" height="1.613" rx="0.806" transform="translate(43.008 68.601)" fill="#e0e0e0"/><rect width="4.836" height="1.613" rx="0.806" transform="translate(43.008 73.437)" fill="#e0e0e0"/><g transform="translate(64.399 40.248)" opacity="0.5"><rect width="81.456" height="73.477" rx="4.5" fill="url(#a)"/></g><rect width="79.076" height="71.169" rx="4.5" transform="translate(65.658 40.985)" fill="#fff"/><g transform="translate(73.422 56.276)" opacity="0.5"><rect width="16.99" height="15.291" rx="4.5" fill="#00aa67"/></g><rect width="45.873" height="1.699" rx="0.85" transform="translate(95.51 56.276)" fill="#e0e0e0"/><rect width="45.873" height="1.699" rx="0.85" transform="translate(95.51 61.374)" fill="#e0e0e0"/><rect width="69.66" height="1.699" rx="0.85" transform="translate(71.723 79.873)" fill="#e0e0e0"/><rect width="69.66" height="1.699" rx="0.85" transform="translate(71.723 84.971)" fill="#e0e0e0"/><rect width="69.66" height="1.699" rx="0.85" transform="translate(71.723 91.765)" fill="#e0e0e0"/><rect width="52.67" height="1.699" rx="0.85" transform="translate(71.723 96.863)" fill="#e0e0e0"/><g transform="translate(0 63.348)" opacity="0.5"><path d="M276.824,339.266h0l.289-1.291-.406,1.261a126.161,126.161,0,0,0-32.353-4.363C165.62,334.408,129,403.994,129,403.994l74.614,39.368s9.152-28.38,41.655-27.455a55.956,55.956,0,0,1,6.678.584l-9.889,30.8a5.491,5.491,0,1,0,9.169,6.035h0v-.015a5.459,5.459,0,0,0,.809-2.77,4.7,4.7,0,0,0-.017-.495l7.148-31.942a43.856,43.856,0,0,1,27.75,25.254L362,405.824S333.8,354.74,276.824,339.266Z" transform="translate(-129 -334.871)" fill="url(#a)"/></g><path d="M248.885,337.993C171.155,337.541,135,406.233,135,406.233l73.665,38.861s9.038-28.019,41.126-27.117a55.21,55.21,0,0,1,6.75.6l24.393-76.244A124.552,124.552,0,0,0,248.885,337.993Z" transform="translate(-133.516 -273.871)" fill="#00b56d"/><path d="M650.773,355.54,626.38,431.792a43.5,43.5,0,0,1,34.374,26.51l74.117-37.052S707.022,370.816,650.773,355.54Z" transform="translate(-503.355 -287.08)" fill="#e0e0e0"/><path d="M593.031,461.025,617.795,350.38,583.186,458.3a5.422,5.422,0,1,0,9.05,5.958h0v-.015a5.389,5.389,0,0,0,.8-2.733A2.931,2.931,0,0,0,593.031,461.025Z" transform="translate(-470.085 -283.196)" fill="#535461"/><g transform="translate(107.216 14.418)" opacity="0.7"><path d="M587.148,186.623l-.648-.121,1.279-4.7c2.013-15.088-5.592-16.619-8.444-16.671a9.375,9.375,0,0,0-1-.3v-1.781a9.454,9.454,0,0,0,7.062-7.633h.025c.453,0,.821-.69.821-1.541a2.136,2.136,0,0,0-.359-1.271q.05-.495.049-.989a9.825,9.825,0,0,0-3.05-7.121,6.33,6.33,0,0,0-.7-1.875c-.7-1.237-1.865-2.518-1.39-3.856l-3.075.317-.03-2.026c-.96.173-1.363,1.284-1.932,2.075-1.37,1.9-4.118,2.169-5.936,3.653-.618.495-2.008,2.038-1.744,3.045a9.81,9.81,0,0,0-1.875,5.78q0,.495.049.989a2.137,2.137,0,0,0-.359,1.271c0,.851.369,1.541.821,1.541h.025a9.454,9.454,0,0,0,7.062,7.633v1.781a9.371,9.371,0,0,0-1,.3c-2.852.052-10.458,1.573-8.444,16.671l1.279,4.7-.3.057a3.5,3.5,0,0,0-2.8,4.089l5.053,27.008a1.061,1.061,0,0,0,1.237.848l.888-.166v.524a2.948,2.948,0,0,0-1.642,2.642v.334h5.956V221.5a2.948,2.948,0,0,0-1.437-2.53v-1.175l.811-.151a1.061,1.061,0,0,0,.848-1.237l-4.734-25.373h13.127L577.9,216.406a1.061,1.061,0,0,0,.848,1.237l.811.151v1.175a2.948,2.948,0,0,0-1.437,2.53v.334h5.956V221.5a2.948,2.948,0,0,0-1.642-2.642v-.524l.888.166a1.061,1.061,0,0,0,1.237-.848l5.105-27.347a3.154,3.154,0,0,0-2.523-3.681Z" transform="translate(-562.467 -137.05)" fill="url(#d)"/></g><rect width="2.765" height="3.755" transform="translate(114.699 92.26)" fill="#fdb797"/><rect width="2.765" height="3.755" transform="translate(124.182 92.26)" fill="#fdb797"/><rect width="18.177" height="6.52" transform="translate(111.736 61.441)" fill="#4d8af0"/><g transform="translate(111.736 61.441)" opacity="0.05"><rect width="18.177" height="6.52"/></g><path d="M580.74,328.939s6.782,1.581,9.087,1.581,9.087-1.581,9.087-1.581v-.989H580.74Z" transform="translate(-469.004 -266.314)" opacity="0.1"/><path d="M598.915,270.433s-6.782,1.581-9.087,1.581-9.087-1.581-9.087-1.581V259.567a9.087,9.087,0,0,1,9.087-9.087h0a9.087,9.087,0,0,1,9.087,9.087Z" transform="translate(-469.004 -208.006)" fill="#f55f44"/><path d="M479.7,153.34h4.346v5.229a1.882,1.882,0,0,1-1.882,1.882h-.579a1.882,1.882,0,0,1-1.882-1.882V153.34Z" transform="translate(-361.048 -115.412)" fill="#fdb797"/><path d="M575.273,364.957l-3.9.727a1.279,1.279,0,0,1-1.484-1.022l-4.645-24.893a4.22,4.22,0,0,1,3.374-4.925l1-.188a1.279,1.279,0,0,1,1.484,1.022l5.194,27.784a1.279,1.279,0,0,1-1.031,1.494Z" transform="translate(-457.289 -271.347)" fill="#4d8af0"/><path d="M625.716,364.965l3.9.727a1.279,1.279,0,0,0,1.484-1.022l4.724-25.308a3.8,3.8,0,0,0-3.037-4.43l-1.42-.265a1.279,1.279,0,0,0-1.484,1.022l-5.194,27.784a1.279,1.279,0,0,0,1.031,1.492Z" transform="translate(-502.063 -271.354)" fill="#4d8af0"/><path d="M608.7,236a9.1,9.1,0,0,0,4.346,0v-3.1H608.7Z" transform="translate(-490.048 -194.774)" opacity="0.1"/><circle cx="9.483" cy="9.483" r="9.483" transform="translate(111.34 20.542)" fill="#333"/><circle cx="9.087" cy="9.087" r="9.087" transform="translate(111.736 23.112)" fill="#fdb797"/><path d="M588,149.043c1.749-1.427,4.393-1.682,5.709-3.515.547-.762.935-1.833,1.858-2l.027,1.949,2.968-.3c-.458,1.286.663,2.523,1.338,3.71a6.1,6.1,0,0,1,.789,2.872c-1.026.616-2.3-.057-3.443-.416a12.447,12.447,0,0,0-3.463-.418,7.186,7.186,0,0,0-1.786.1,9,9,0,0,0-1.484.542c-.787.329-3.272,1.573-4,.772C585.693,151.428,587.327,149.595,588,149.043Z" transform="translate(-473.18 -127.509)" fill="#333"/><path d="M590.919,174.486a4.168,4.168,0,0,0,1.608.495,14.158,14.158,0,0,0,6.9-.774,3.365,3.365,0,0,0,2.174,1.838,10.1,10.1,0,0,0,2.914.327,1.078,1.078,0,0,0,.626-.119c.438-.294.225-.972-.03-1.432l-1.266-2.3a6.8,6.8,0,0,0-1.338-1.882,5.564,5.564,0,0,0-2.642-1.135,14.9,14.9,0,0,0-6.782.225C590.714,170.358,587.674,172.522,590.919,174.486Z" transform="translate(-475.602 -146.845)" opacity="0.1"/><path d="M590.919,173.686a4.168,4.168,0,0,0,1.608.495,14.158,14.158,0,0,0,6.9-.774,3.365,3.365,0,0,0,2.174,1.838,10.1,10.1,0,0,0,2.914.326,1.078,1.078,0,0,0,.626-.119c.438-.294.225-.972-.03-1.432l-1.266-2.3a6.8,6.8,0,0,0-1.338-1.882,5.564,5.564,0,0,0-2.642-1.135,14.9,14.9,0,0,0-6.782.225C590.714,169.553,587.674,171.725,590.919,173.686Z" transform="translate(-475.602 -146.243)" fill="#333"/><ellipse cx="0.792" cy="1.482" rx="0.792" ry="1.482" transform="translate(129.023 30.718)" fill="#fdb797"/><ellipse cx="0.792" cy="1.482" rx="0.792" ry="1.482" transform="translate(111.043 30.718)" fill="#fdb797"/><path d="M580.094,252.767s-11.5-1.791-9.125,15.991l1.383,5.1,3.958-.158s-2.568-5.936-.989-9.879S580.094,252.767,580.094,252.767Z" transform="translate(-461.407 -209.689)" fill="#f55f44"/><path d="M626.12,252.767s11.5-1.791,9.125,15.991l-1.383,5.1L629.9,273.7s2.567-5.936.989-9.879S626.12,252.767,626.12,252.767Z" transform="translate(-503.16 -209.689)" fill="#f55f44"/><circle cx="2.174" cy="2.174" r="2.174" transform="translate(110.944 62.623)" fill="#fdb797"/><circle cx="2.174" cy="2.174" r="2.174" transform="translate(126.75 62.623)" fill="#fdb797"/><path d="M459.813,381.79h.764a2.473,2.473,0,0,1,2.474,2.473v.678H457.33v-.678a2.473,2.473,0,0,1,2.483-2.473Z" transform="translate(-344.211 -287.356)" fill="#333"/><path d="M498.953,381.79h.764a2.473,2.473,0,0,1,2.473,2.473v.678H496.47v-.678a2.473,2.473,0,0,1,2.483-2.473Z" transform="translate(-373.67 -287.356)" fill="#333"/><path d="M588.045,291.21s-.792,4.148.594,5.936" transform="translate(-474.333 -238.661)" opacity="0.1"/><path d="M644.434,291.21s.792,4.148-.594,5.936" transform="translate(-516.497 -238.661)" opacity="0.1"/></svg>