<svg xmlns="http://www.w3.org/2000/svg" width="250.526" height="171.712" viewBox="0 0 250.526 171.712"><g transform="translate(0)"><path d="M396.2,673.347l-.678,8.814,6.554.678L400.5,672.217Z" transform="translate(-306.137 -520.297)" fill="#ffb9b9"/><rect width="17.675" height="32.303" transform="translate(57.523 9.142)" fill="#f2f2f2"/><rect width="23.77" height="32.303" transform="translate(109.939 115.599)" fill="#f2f2f2"/><rect width="23.567" height="35.553" transform="translate(86.575 65.824)" fill="#f2f2f2"/><rect width="23.567" height="35.553" transform="translate(110.142 19.504)" fill="#f2f2f2"/><rect width="217.752" height="0.506" transform="translate(9.949 171.205)" fill="#2f2e41"/><path d="M404.75,248.769H299.263V109.558H404.75Zm-105.034-.452H404.3V110.01H299.715Z" transform="translate(-241.966 -100.642)" fill="#3f3d56"/><path d="M459.141,249.465H398.147V110.457h60.994Zm-60.542-.452h60.09v-138.1H398.6Z" transform="translate(-318.502 -101.337)" fill="#3f3d56"/><path d="M404.75,359.493H299.263V312.72H404.75Zm-105.034-.452H404.3V313.172H299.715Z" transform="translate(-241.966 -257.889)" fill="#3f3d56"/><circle cx="6.704" cy="6.704" r="6.704" transform="translate(73.167 48.352)" fill="#00aa67"/><circle cx="6.704" cy="6.704" r="6.704" transform="translate(133.709 3.251)" fill="#00aa67"/><rect width="0.452" height="138.556" transform="translate(109.814 9.345)" fill="#3f3d56"/><path d="M835.128,681.678a50.727,50.727,0,0,1,2.221,19.976,48.192,48.192,0,0,1-12.4-37.308A50.725,50.725,0,0,1,835.128,681.678Z" transform="translate(-648.691 -530.048)" fill="#00b86f"/><path d="M882.026,681.678a50.725,50.725,0,0,0-2.221,19.976,48.193,48.193,0,0,0,12.4-37.308A50.727,50.727,0,0,0,882.026,681.678Z" transform="translate(-691.147 -530.048)" fill="#00b86f"/><path d="M867.7,674.529a50.727,50.727,0,0,1-3.775,19.741,48.194,48.194,0,0,1-.831-39.305A50.725,50.725,0,0,1,867.7,674.529Z" transform="translate(-675.443 -522.787)" fill="#3f3d56"/><path d="M283.2,390.483h0c5.587,1.722,8.566,8.143,6.656,14.343l-2.427,7.877L285,411.956l-.5-3.351-.549,3.026-15.571-4.8-.457-3.046-.5,2.751-1.753-.54,1.906-6.185C269.776,392.679,276.77,388.5,283.2,390.483Z" transform="translate(-215.967 -317.697)" fill="#2f2e41"/><path d="M290.2,496.609a3.668,3.668,0,0,0-4.261,3.374,4.217,4.217,0,0,0,2.491,4.148c4.522,2.529,14.327,8.042,14.327,8.042l18.709,3.593s9.454,7.544,10.639,3.253-8.971-6.911-8.971-6.911L305.946,507.7l-10.952-7.922A8.914,8.914,0,0,0,290.2,496.609Z" transform="translate(-231.644 -400.181)" fill="#ffb9b9"/><path d="M232.636,499.772l1.88,5.3,11.283-2.735-2.906-3.932Z" transform="translate(-180.06 -385.765)" fill="#ffb9b9"/><path d="M69.852,702.121l-8.548-.855,5.983-5.812,4.274,2.906Z" transform="translate(-47.449 -538.282)" fill="#ffb9b9"/><circle cx="7.02" cy="7.02" r="7.02" transform="translate(58.236 76.482)" fill="#ffb9b9"/><path d="M271.436,444.454s-3.932,4.616-5.983,5.3-7.18,7.18-4.616,11.454,11.967-1.026,11.967-1.026l-.342-4.274s3.932-6.838,4.787-7.351S271.436,444.454,271.436,444.454Z" transform="translate(-211.681 -359.851)" fill="#ffb9b9"/><path d="M270.378,472.16a5.723,5.723,0,0,0-10.181,1.247q-.04.12-.077.243c-1.368,4.616.684,12.48.684,12.48l3.077,9.231s8.035-3.761,13.847,2.564l-.855-6.5s2.393-5.471-.684-9.4C274.232,479.525,272.412,475.222,270.378,472.16Z" transform="translate(-211.306 -379.304)" fill="#575a89"/><path d="M184.87,585.736s-4.1-5.47-12.48-2.222l-1.539,4.274s-8.89,7.009-3.932,17.779l-.342,16.07-1.368,4.616L140.422,624.2l-.855,7.864,4.445.342s25.13,9.915,29.062,3.761,12.138-30.43,12.138-30.43l21.285,3.187s-.623,6.661.061,7.516.342,4.445.684,5.129a5.989,5.989,0,0,1,.057,2.461l7.062-.233v-3.419s.855-4.616.855-5.812,5.129-16.924-3.761-18.292-24.191-3.871-24.191-3.871Z" transform="translate(-118.361 -466.686)" fill="#2f2e41"/><path d="M64.378,753.287l-.342,2.564s-11.283-2.222-13.676-.171-2.393,3.419-4.274,2.051c-.8-.581-.116-2,.933-3.431a17.273,17.273,0,0,1,6.366-5.286c2.821-1.381,6.719-3.388,6.719-3.934,0-.855,3.077-3.419,4.274-2.051a50.9,50.9,0,0,1,3.419,5.129Z" transform="translate(-45.737 -590.644)" fill="#2f2e41"/><path d="M433.45,768.322s-2.506,8.884-1.595,9.34a10.716,10.716,0,0,0,5.467,1.822,17.779,17.779,0,0,1,5.728,1.591,13.809,13.809,0,0,0,6.293,1.083c1.435-.1,2.655-.435,2.558-1.307-.228-2.05-4.556-2.506-4.556-2.506l-4.556-5.923s-.8-3.759-1.481-3.759a1.5,1.5,0,0,1-1.025-.342Z" transform="translate(-344.438 -610.526)" fill="#2f2e41"/><path d="M275.524,469.428a4.238,4.238,0,0,0-5.871-2.227c-1.412.713-2.719,2.127-2.639,4.929.171,5.983.513,18.976.513,18.976l7.522,20.685s-1.881,13.847,3.077,12.48,1.539-12.992,1.539-12.992l-5.812-19.66,1.368-15.557S276.687,472.484,275.524,469.428Z" transform="translate(-217.003 -377.1)" fill="#ffb9b9"/><path d="M290.833,398.26a5.551,5.551,0,0,1,4.844-.846l.2.061c3.829,1.18,5.865,5.6,4.548,9.875h0l-1.283-.4.279-1.641-.79,1.484-7.609-2.345-.226-1.531-.252,1.383-1.5-.461q-2.651,4.881-.2,11.335l-2.55-.786-.453-3.062-.5,2.767-4.861-1.5.935-6.432A10.855,10.855,0,0,1,290.833,398.26Z" transform="translate(-227.429 -323.268)" fill="#2f2e41"/><circle cx="20.519" cy="20.519" r="20.519" transform="translate(89.623 80.858)" fill="#00b06a"/><path d="M550.586,148.075l-.166-.42-39.139,15.432-37.428-42.81,46.462-18.32-.166-.42-46.612,18.379-11.56-13.222,1.906-.742a13.648,13.648,0,0,1-4.161-1.494,13.659,13.659,0,0,1,.925,4.323l.99-1.79,11.454,13.1-71.078,28.026-.058-2.044a13.648,13.648,0,0,1-2.806,3.417,13.66,13.66,0,0,1,4.383.583l-1.353-1.534,71.229-28.085,37.428,42.81-78.552,30.972-.058-2.044a13.648,13.648,0,0,1-2.806,3.417,13.66,13.66,0,0,1,4.383.583l-1.353-1.534,78.7-31.032,34.071,38.969.34-.3L511.6,163.448Z" transform="translate(-319.277 -94.433)" fill="#3f3d56"/><rect width="38.601" height="14.831" transform="translate(211.926 46.118)" fill="#3f3d56"/><rect width="24.989" height="1.219" transform="translate(218.732 50.079)" fill="#f2f2f2"/><rect width="24.989" height="1.219" transform="translate(218.732 52.924)" fill="#f2f2f2"/><rect width="24.989" height="1.219" transform="translate(218.732 55.768)" fill="#f2f2f2"/><rect width="38.601" height="14.831" transform="translate(181.655)" fill="#3f3d56"/><rect width="24.989" height="1.219" transform="translate(188.461 3.962)" fill="#f2f2f2"/><rect width="24.989" height="1.219" transform="translate(188.461 6.806)" fill="#f2f2f2"/><rect width="24.989" height="1.219" transform="translate(188.461 9.65)" fill="#f2f2f2"/><rect width="38.601" height="14.831" transform="translate(206.847 100.565)" fill="#3f3d56"/><rect width="24.989" height="1.219" transform="translate(213.652 104.526)" fill="#f2f2f2"/><rect width="24.989" height="1.219" transform="translate(213.652 107.371)" fill="#f2f2f2"/><rect width="24.989" height="1.219" transform="translate(213.652 110.215)" fill="#f2f2f2"/></g></svg>