<svg xmlns="http://www.w3.org/2000/svg" xmlns:xlink="http://www.w3.org/1999/xlink" width="628" height="451.421" viewBox="0 0 628 451.421"><defs><linearGradient id="a" x1="0.493" y1="1" x2="0.493" gradientUnits="objectBoundingBox"><stop offset="0" stop-color="gray" stop-opacity="0.251"/><stop offset="0.54" stop-color="gray" stop-opacity="0.122"/><stop offset="1" stop-color="gray" stop-opacity="0.102"/></linearGradient><linearGradient id="b" x1="0.5" y1="1" x2="0.5" y2="0" xlink:href="#a"/></defs><g transform="translate(0 -0.05)"><path d="M455.489,122.13l-9.481,6.017,5.755-10.471a9.378,9.378,0,0,0-5.73-2.046h-.153a11.051,11.051,0,0,1-1.967-.141l-3.213,2.034,1.375-2.5a11.436,11.436,0,0,1-5.62-4.276l-5.749,3.665,3.653-6.616c-3.36-4.032-7.893-6.512-12.884-6.512-5.981,0-11.308,3.561-14.747,9.1a11,11,0,0,1-9.774,5.254h-.318c-6.6,0-11.955,7.49-11.955,16.72s5.351,16.72,11.955,16.72a8.986,8.986,0,0,0,4.16-1.038,17.256,17.256,0,0,1,14.472-.287,15.1,15.1,0,0,0,12.3,0,17.27,17.27,0,0,1,14.338.275,8.993,8.993,0,0,0,4.123,1.02c6.6,0,11.955-7.483,11.955-16.72a21.242,21.242,0,0,0-2.5-10.2Z" transform="translate(-202.218 -88.566)" fill="#f2f2f2"/><path d="M437.62,160.479a17.655,17.655,0,0,0-10.245,1.118,15.083,15.083,0,0,1-12.3,0,17.258,17.258,0,0,0-14.472.281,8.919,8.919,0,0,1-4.16,1.045c-5.871,0-10.746-5.907-11.766-13.7a11.26,11.26,0,0,0,2.932-3.164c3.439-5.541,8.766-9.1,14.747-9.1s11.247,3.513,14.661,9a11.314,11.314,0,0,0,9.744,5.351h.153C431.609,151.279,435.653,155.024,437.62,160.479Z" transform="translate(-202.218 -102.45)" opacity="0.03"/><path d="M281.2,425.469l-3.843-2.389c-.366-.226-.727-.47-1.094-.7a36.568,36.568,0,0,0,3.7-71.243l.189,15.065-8.278-16.39h-.1a36.574,36.574,0,0,0-38.23,34.821c-.037.7,0,1.387,0,2.077a43.736,43.736,0,0,1-7.227-10.672c-3.5-7.813-3.568-16.665-3.293-27.429.55-21.32,1.472-42.812,2.67-64.23a36.562,36.562,0,0,0,32.475-34.6c.049-1.118.031-2.218,0-3.317a5.254,5.254,0,0,0-.043-.819c-.073-1.063-.171-2.114-.336-3.152a2.782,2.782,0,0,0-.092-.5c-.147-.88-.33-1.747-.538-2.6-.079-.324-.159-.641-.244-.959-.257-.935-.538-1.833-.867-2.761-.11-.3-.238-.611-.354-.892-.257-.666-.538-1.326-.837-1.973-.159-.342-.312-.684-.476-1.02-.049-.086-.079-.177-.128-.263h0a36.556,36.556,0,0,0-42.934-18.547l.244,19.61-8.186-16.2a36.391,36.391,0,0,0-17.478,39.4h-.037c.055.263.134.513.2.77.116.483.238.959.373,1.436.171.611.367,1.222.568,1.833.153.452.3.9.47,1.344.25.648.531,1.277.813,1.906.165.366.312.745.489,1.106q.7,1.417,1.515,2.767c.189.318.4.611.611.922.391.611.782,1.222,1.222,1.79.263.36.544.709.819,1.057.4.507.812,1.008,1.222,1.491.3.348.611.684.922,1.014.452.477.91.935,1.387,1.381.318.3.611.611.959.892.538.483,1.1.935,1.668,1.381.287.226.568.458.861.678q1.3.916,2.682,1.833c.171.1.36.189.532.293.776.452,1.558.886,2.364,1.277.348.171.7.324,1.057.483.66.293,1.326.58,2.01.843l1.222.428c.672.226,1.356.44,2.046.611.4.11.813.226,1.222.324.745.177,1.509.324,2.279.458l.147.031q-.751,13.556-1.344,27.118a36.55,36.55,0,0,0-50.747-15.883l6.463,17.716-13.3-12.768a36.446,36.446,0,0,0-11.815,25.254,35.738,35.738,0,0,0,.929,10.074,36.556,36.556,0,0,0,67.223,9.945c0,.916-.061,1.833-.086,2.755-.244,9.493-.55,21.308,4.185,31.858,3.207,7.148,8.363,12.957,13.44,18.162,3.317,3.384,6.757,6.665,10.281,9.835a36.708,36.708,0,0,0,13.208,11c5.791,4.46,11.79,8.656,17.991,12.529l3.873,2.407c3.482,2.156,7.05,4.374,10.544,6.677-.611-.061-1.222-.128-1.833-.159a36.586,36.586,0,0,0-36.006,23.825l22.86,18.565-25.132-5.828a36.587,36.587,0,0,0,52.427,32.94l-1.668,2.108q-1.686,2.1-3.329,4.166c-14.869,18.834-19,36.709-11.644,50.338l8.956-4.832c-7.2-13.269,3.574-30.252,10.642-39.183q1.613-2.034,3.274-4.093c9.5-11.8,20.263-25.181,20-41.59C324.5,452.312,300.495,437.43,281.2,425.469Z" transform="translate(-108.851 -131.444)" fill="#f2f2f2"/><path d="M604.327,347.487l4.789-2.981c.458-.287.9-.611,1.362-.88a45.615,45.615,0,0,1-4.582-88.879l-.238,18.8L615.964,253.1h.122a45.634,45.634,0,0,1,47.7,43.453c.043.874,0,1.729,0,2.59a54.333,54.333,0,0,0,9.017-13.311c4.374-9.774,4.46-20.77,4.111-34.21-.684-26.6-1.833-53.411-3.329-80.131a45.61,45.61,0,0,1-40.515-43.172c-.061-1.393-.043-2.767,0-4.136a9.6,9.6,0,0,1,.055-1.026c.086-1.326.214-2.639.409-3.928.031-.214.079-.422.116-.611q.281-1.649.678-3.25c.1-.4.2-.8.3-1.222.324-1.161.672-2.315,1.081-3.439.135-.379.293-.739.44-1.112.33-.837.678-1.656,1.051-2.444.2-.422.385-.849.611-1.271.049-.1.1-.22.153-.324h0a45.573,45.573,0,0,1,53.563-23.135l-.305,24.436,10.214-20.208a45.371,45.371,0,0,1,21.785,49.159h.049c-.067.324-.171.611-.244.959-.147.611-.3,1.222-.464,1.79-.214.764-.458,1.509-.709,2.254-.189.562-.373,1.124-.611,1.68-.312.806-.66,1.594-1.014,2.376-.208.458-.391.929-.611,1.381-.611,1.179-1.222,2.334-1.888,3.452-.232.4-.5.77-.752,1.155-.489.758-.984,1.5-1.515,2.23-.33.452-.678.88-1.02,1.32-.5.611-1.008,1.258-1.546,1.863q-.562.611-1.155,1.265c-.556.611-1.136,1.161-1.723,1.723-.4.373-.788.751-1.222,1.112-.678.611-1.375,1.161-2.089,1.717-.354.281-.7.58-1.069.849-1.081.794-2.193,1.552-3.348,2.254-.214.128-.446.238-.666.367q-1.435.855-2.944,1.594c-.434.214-.88.4-1.32.611-.825.373-1.655.727-2.5,1.051-.5.189-1,.367-1.5.538-.843.287-1.692.544-2.554.782-.507.141-1.014.281-1.533.409-.935.22-1.882.4-2.841.568l-.189.037q.953,16.916,1.68,33.837a45.585,45.585,0,0,1,63.313-19.793l-8.009,22.1,16.586-15.926a45.451,45.451,0,0,1,14.741,31.5,44.563,44.563,0,0,1-1.155,12.523,45.609,45.609,0,0,1-83.888,12.426c0,1.142.079,2.3.11,3.439.306,11.845.684,26.586-5.217,39.745-4,8.925-10.44,16.164-16.806,22.658q-6.213,6.341-12.829,12.273a45.778,45.778,0,0,1-16.494,13.7c-7.227,5.565-14.71,10.8-22.444,15.639L611,358.275c-4.344,2.688-8.791,5.455-13.159,8.326.77-.073,1.527-.159,2.309-.2a45.646,45.646,0,0,1,44.919,29.7l-28.5,23.214,31.357-7.264a45.652,45.652,0,0,1-65.415,41.089c.709.88,1.411,1.759,2.12,2.633,1.4,1.741,2.8,3.476,4.16,5.2,18.547,23.489,23.709,45.817,14.521,62.8l-11.167-6.03c8.937-16.555-4.508-37.741-13.324-48.872-1.338-1.692-2.706-3.4-4.081-5.107-11.851-14.723-25.285-31.412-24.955-51.883C550.293,380.97,580.252,362.4,604.327,347.487Z" transform="translate(-266.459 -80.5)" fill="#f2f2f2"/><path d="M681,265.9V480.072a4.4,4.4,0,0,1-4.4,4.4H240.058a4.4,4.4,0,0,1-4.4-4.4V265.9a4.4,4.4,0,0,1,4.4-4.4H676.6A4.4,4.4,0,0,1,681,265.9Z" transform="translate(-144.233 -150.909)" fill="#3f3d56"/><path d="M681,264.438v9.89H235.66v-9.89A2.938,2.938,0,0,1,238.6,261.5H678.064A2.938,2.938,0,0,1,681,264.438Z" transform="translate(-144.233 -150.909)" fill="#cbceda"/><circle cx="3.054" cy="3.054" r="3.054" transform="translate(98.146 113.646)" fill="#6c63ff"/><circle cx="3.054" cy="3.054" r="3.054" transform="translate(106.699 113.646)" fill="#6c63ff"/><circle cx="3.054" cy="3.054" r="3.054" transform="translate(115.251 113.646)" fill="#6c63ff"/><path d="M654.62,457.312v36.764l-302.515.165-.275-73.491c3.195,9.414,11.082,11.106,24.967-5.5,33.935-40.527,80.064-51.193,115.771-52.311,24.436-.77,48.817,4.276,72.086,14.3,9.664,4.172,47.857,8.662,73.063,10.666a18.266,18.266,0,0,1,16.83,18.168Z" transform="translate(-189.436 -190.35)" fill="#00ffa8" opacity="0.2"/><path d="M654.62,441.461v73.063H351.83V498.64c8.656-2.181,41.034-10.568,56.557-33.734,18.571-27.735,43.813-35.029,63.344-35.792,13.385-.531,26.708,2.908,39.427,9.774,14.307,7.722,41.889,17.038,62.843-10.007,23.177-29.9,58.78-5.26,67.809,3.8C645.035,435.883,654.62,441.461,654.62,441.461Z" transform="translate(-189.436 -210.45)" fill="#00ffa8" opacity="0.2"/><path d="M265.83,251.28v149.4H568.62" transform="translate(-103.436 -97.755)" fill="none" stroke="#6c63ff" stroke-miterlimit="10" stroke-width="2"/><line y1="91.078" transform="translate(200.545 211.847)" fill="none" stroke="#6c63ff" stroke-miterlimit="10" stroke-width="1"/><line y1="115.441" transform="translate(237.296 187.485)" fill="none" stroke="#6c63ff" stroke-miterlimit="10" stroke-width="1"/><line y1="127.029" transform="translate(274.047 175.896)" fill="none" stroke="#6c63ff" stroke-miterlimit="10" stroke-width="1"/><line y1="130.622" transform="translate(310.799 172.304)" fill="none" stroke="#6c63ff" stroke-miterlimit="10" stroke-width="1"/><line y1="126.626" transform="translate(347.55 176.299)" fill="none" stroke="#6c63ff" stroke-miterlimit="10" stroke-width="1"/><line y1="111.849" transform="translate(384.302 191.077)" fill="none" stroke="#6c63ff" stroke-miterlimit="10" stroke-width="1"/><line y1="104.261" transform="translate(421.053 198.664)" fill="none" stroke="#6c63ff" stroke-miterlimit="10" stroke-width="1"/><circle cx="6.793" cy="6.793" r="6.793" transform="translate(193.55 203.857)" fill="#00ffa8"/><circle cx="6.793" cy="6.793" r="6.793" transform="translate(230.301 180.691)" fill="#00ffa8"/><circle cx="6.793" cy="6.793" r="6.793" transform="translate(267.053 169.506)" fill="#00ffa8"/><circle cx="6.793" cy="6.793" r="6.793" transform="translate(303.798 165.511)" fill="#00ffa8"/><circle cx="6.793" cy="6.793" r="6.793" transform="translate(340.549 169.506)" fill="#00ffa8"/><circle cx="6.793" cy="6.793" r="6.793" transform="translate(377.301 184.681)" fill="#00ffa8"/><circle cx="6.793" cy="6.793" r="6.793" transform="translate(414.052 192.671)" fill="#00ffa8"/><ellipse cx="314" cy="12.829" rx="314" ry="12.829" transform="translate(0 425.813)" fill="#3f3d56"/><path d="M141.384,397.6a2.853,2.853,0,0,1-.495,1.478c2.444-.073,4.612-1.68,6.866-2.444a24.025,24.025,0,0,0,.305,7.2,30.028,30.028,0,0,0,1.454,5.736c1.546,6.641,4.362,13.171,6.885,19.549a39.286,39.286,0,0,1,2.444,7.862c1.717,10.294-4.221,20.251-5.345,30.618a5.809,5.809,0,0,0,0,1.723,2.191,2.191,0,0,0-.269.348c-4.148,6.366-3.61,17.02-2.865,24.558s3.134,14.808,5.388,22.047a43.174,43.174,0,0,1,1.57,6.109,40.58,40.58,0,0,1,.171,8.553c-.745,13.263-2.615,26.641-.409,39.708,1.607,9.524,5.113,18.186,5.5,27.833a4.685,4.685,0,0,1,1.344-1.833l.66,25.334a1.472,1.472,0,0,0,.477,1.283c.47.3,1.081,0,1.637-.079,1.613-.2,2.645,1.558,3.714,2.773a9.554,9.554,0,0,0,6.506,2.89,28.613,28.613,0,0,0,7.27-.66,5.957,5.957,0,0,0,3.14-1.222,3.891,3.891,0,0,0,1.063-3.354c-.476-3.733-4.5-5.858-6.518-9.041-2.389-3.763-1.833-8.8-4.166-12.609-.8-1.3-1.906-2.4-2.621-3.751a14.966,14.966,0,0,1-.849-2.578,7.5,7.5,0,0,1,2.04.971c-.22-1.979-.446-3.965-.666-5.95l-.1-.855c-.3-2.682-.611-5.358-.831-8.046-.751-8.846,1.759-17.514,0-26.22a11.7,11.7,0,0,1,.764-5.547,138.234,138.234,0,0,0,5.614-31.559c.22-3.775.214-7.416,1.423-11,1.417,5.773,5.8,10.324,8.553,15.62,1.7,3.3,2.755,6.9,4.606,10.117a27.849,27.849,0,0,1,2.547,4.753c.88,2.657.415,5.541,0,8.314-1.985,14.356-1.753,28.969-1.118,43.447A68.836,68.836,0,0,1,193.28,605.9c-.757,2.065-1.582,4.472-.409,6.335a6.531,6.531,0,0,0,1.833,1.711,43.135,43.135,0,0,0,5.461,3.3,2.823,2.823,0,0,0,1.912.44,4.4,4.4,0,0,0,1.161-.611,6.038,6.038,0,0,1,5.04-.177c1.637.574,3.116,1.533,4.7,2.224a16.054,16.054,0,0,0,10.544.745c1.478-.409,3.054-1.191,3.513-2.639a3.827,3.827,0,0,0-1.552-3.928,22.03,22.03,0,0,0-3.946-2.163,16.2,16.2,0,0,1-6.86-6.848,31.813,31.813,0,0,1-2.163-6.03q-1.063-3.739-2.12-7.477a10.487,10.487,0,0,1,1.149.874c1-12.34,2-24.717,4.649-36.813,1.265-5.785,2.914-11.644,2.273-17.527a49.086,49.086,0,0,0-2.218-9.053q-4.276-13.922-7.49-28.138a9.469,9.469,0,0,0,1.833-3.054,22.512,22.512,0,0,0,1.118-6.475,311.512,311.512,0,0,0-.122-44.6c-.281-3.763-.721-7.716-2.2-11.137h.867c-1.032,0-2.718-10.251-2.92-11.393-.69-3.959-1.173-7.942-1.888-11.894-.348-1.924-.739-3.849-1.222-5.742-.33-1.258-1.649-9.072-2.7-9.945a1.306,1.306,0,0,0-.379-.22,7.465,7.465,0,0,0-3.244-4.215,9.9,9.9,0,0,0-5.681-.831q-.837-1.222-1.674-2.413a14.118,14.118,0,0,1-2.315-4.392,10.74,10.74,0,0,1-.281-2.028c0-.458-.031-.916-.049-1.375v-.69a11.318,11.318,0,0,0-.147-1.362h0c-.061-.373-.153-.733-.251-1.1-.043-.153-.1-.312-.147-.464-.281-.922-.611-1.833-.855-2.761-.751-3-.373-6.146-.257-9.237s-.086-6.366-1.833-8.943c-1.277-1.894-3.323-3.329-4.007-5.5a21.728,21.728,0,0,0-.782-3.146,5.217,5.217,0,0,0-2.786-2.334c-1.381-.611-4.154-1.417-5.639-.7a2.192,2.192,0,0,0-.721.574c-1.57.079-3.152.293-4.533-.4-1.063-.531-1.833-1.539-2.865-2.12-2.444-1.368-5.559,0-7.734,1.784a22.3,22.3,0,0,0-7.251,10.923c-.965,3.3-1.356,7.166-4.124,9.249-1.148.861-2.627,1.338-3.464,2.492a6.347,6.347,0,0,0-.916,3.109,19.91,19.91,0,0,0,.141,7.514c.5,1.833,1.484,3.47,2.1,5.254A13.837,13.837,0,0,1,138,397.02a4.563,4.563,0,0,0,3.384.58Zm58.744,74.12a6.573,6.573,0,0,0,3.293-4.38c.067.238.122.477.183.715a16.964,16.964,0,0,1-.458,9.64,34.671,34.671,0,0,0-3.018-5.975ZM201.35,458.2a25.154,25.154,0,0,1-2.566-4.661c-.941-2.639-.727-5.5-.5-8.32a39.255,39.255,0,0,1,.88-6.329,134.912,134.912,0,0,0,2.205,19.31Z" transform="translate(-106.233 -182.107)" fill="url(#a)"/><path d="M198.292,348.933a5.15,5.15,0,0,1,2.737,2.315,22.263,22.263,0,0,1,.77,3.128c.672,2.163,2.688,3.592,3.934,5.5,1.7,2.56,1.9,5.822,1.784,8.888s-.483,6.2.257,9.163c.36,1.448.984,2.834,1.222,4.307.305,1.8.049,3.665.495,5.431a14,14,0,0,0,2.279,4.362l3.977,5.816a45.081,45.081,0,0,1-5.235-1.6,9.364,9.364,0,0,0,2.835,4.276l-2.877-3.482a8.127,8.127,0,0,0-2.138-2.028,11.13,11.13,0,0,0-3.488-.935,8.171,8.171,0,0,1-5.681-3.665c-1.484-2.737-.538-6.17-1.362-9.163-.611-2.187-2.114-3.989-3.152-6.011-2.346-4.563-2.205-9.952-2.938-15.04a46.95,46.95,0,0,1-.806-6.488c0-1.607.159-4.673,1.833-5.5C194.2,347.522,196.93,348.352,198.292,348.933Z" transform="translate(-126.817 -184.546)" fill="#3f3d56"/><path d="M244.685,743.883l3.054,10.856a31.617,31.617,0,0,0,2.126,5.993,15.949,15.949,0,0,0,6.72,6.811,22.574,22.574,0,0,1,3.879,2.151,3.851,3.851,0,0,1,1.521,3.9c-.44,1.417-2,2.218-3.452,2.627a15.65,15.65,0,0,1-10.385-.751c-1.558-.69-3.012-1.643-4.618-2.211a5.868,5.868,0,0,0-4.954.177,4.339,4.339,0,0,1-1.142.611,2.725,2.725,0,0,1-1.882-.434,41.96,41.96,0,0,1-5.37-3.287,6.349,6.349,0,0,1-1.772-1.7c-1.161-1.833-.342-4.276.4-6.3a69.1,69.1,0,0,0,3.806-16.793,1.766,1.766,0,0,1,.556-1.362,1.724,1.724,0,0,1,.88-.2l13.049-.611" transform="translate(-141.187 -338.407)" fill="#575a89"/><path d="M193.081,758.9c.7,1.338,1.8,2.444,2.578,3.733,2.291,3.781,1.747,8.791,4.1,12.529,1.985,3.164,5.938,5.284,6.408,8.992a3.9,3.9,0,0,1-1.045,3.329,5.926,5.926,0,0,1-3.091,1.185,27.626,27.626,0,0,1-7.141.66,9.4,9.4,0,0,1-6.4-2.877c-1.057-1.222-2.065-2.951-3.665-2.749-.55.067-1.148.373-1.613.073a1.479,1.479,0,0,1-.464-1.271l-.721-27.777c2.309-.25,6.311-1.167,8.553-.373C192.513,755.036,192.2,757.211,193.081,758.9Z" transform="translate(-123.366 -342.559)" fill="#575a89"/><path d="M207.129,548.908c5.633,7.007,7.3,16.286,9.108,25.1q3.494,17.044,8.589,33.709a50.454,50.454,0,0,1,2.181,9c.611,5.852-.99,11.674-2.236,17.423-2.6,12.029-3.586,24.332-4.563,36.6a11.692,11.692,0,0,0-14.185-.751c-.66-14.79-.959-29.732,1.045-44.406.379-2.755.837-5.62,0-8.259a26.942,26.942,0,0,0-2.511-4.722c-1.833-3.2-2.859-6.781-4.527-10.061-2.682-5.266-6.989-9.774-8.381-15.529-1.191,3.568-1.185,7.184-1.4,10.935a138.875,138.875,0,0,1-5.5,31.412,11.638,11.638,0,0,0-.751,5.5c1.711,8.663-.757,17.276,0,26.073.22,2.67.519,5.333.812,8l.1.855.66,5.914c-2.444-1.668-5.028-1.43-7.978-1.277a8.585,8.585,0,0,0-2.92.513,4.759,4.759,0,0,0-2.633,2.633c-.354-9.591-3.806-18.2-5.382-27.667-2.169-13.024-.336-26.33.4-39.513a40.929,40.929,0,0,0-.171-8.522,43.872,43.872,0,0,0-1.546-6.109c-2.211-7.2-4.563-14.423-5.3-21.919s-1.258-18.083,2.816-24.436c1.258-1.955,4.356-1.075,6.311-2.346a15.912,15.912,0,0,1,5.009-2.053C184.868,542.512,196.207,547.967,207.129,548.908Z" transform="translate(-114.615 -260.968)" fill="#3c354c"/><path d="M190.56,403.445c.238,2.67.8,5.816,3.232,6.94,1.381.611,2.981.4,4.472.641a9.333,9.333,0,0,1,6.451,5.168,23.389,23.389,0,0,1,2.065,8.272c.379,3.562.5,7.422-1.454,10.422a11.831,11.831,0,0,1-7.111,4.655,19.823,19.823,0,0,1-16.561-3.054,37.126,37.126,0,0,1-6.109-6.023c-4.056-4.722-8.143-9.9-8.974-16.067a2.028,2.028,0,0,1,.483-1.967,2.12,2.12,0,0,1,1.307-.257l3.891.067a3.588,3.588,0,0,0,2.767-.739,3.526,3.526,0,0,0,.611-2.584l-.263-11.3a1.625,1.625,0,0,1,.263-1.142,1.484,1.484,0,0,1,.892-.385c2.144-.36,4.386,0,6.482-.58,2-.55,5.132-2.841,6.6-.489C190.822,397.049,190.358,401.166,190.56,403.445Z" transform="translate(-117.332 -202.46)" fill="#ffc1c7"/><path d="M190.56,403.445c.238,2.67.8,5.816,3.232,6.94,1.381.611,2.981.4,4.472.641a9.333,9.333,0,0,1,6.451,5.168,23.389,23.389,0,0,1,2.065,8.272c.379,3.562.5,7.422-1.454,10.422a11.831,11.831,0,0,1-7.111,4.655,19.823,19.823,0,0,1-16.561-3.054,37.126,37.126,0,0,1-6.109-6.023c-4.056-4.722-8.143-9.9-8.974-16.067a2.028,2.028,0,0,1,.483-1.967,2.12,2.12,0,0,1,1.307-.257l3.891.067a3.588,3.588,0,0,0,2.767-.739,3.526,3.526,0,0,0,.611-2.584l-.263-11.3a1.625,1.625,0,0,1,.263-1.142,1.484,1.484,0,0,1,.892-.385c2.144-.36,4.386,0,6.482-.58,2-.55,5.132-2.841,6.6-.489C190.822,397.049,190.358,401.166,190.56,403.445Z" transform="translate(-117.332 -202.46)" opacity="0.1"/><circle cx="14.863" cy="14.863" r="14.863" transform="translate(48.572 170.52)" fill="#ffc1c7"/><path d="M193.146,438.226c2.4.043,5.113-.611,6.274-2.737a8.359,8.359,0,0,0,.513-4.832l-.861-9.163c2.334-.244,4.844-.452,6.879.7,2.706,1.533,3.665,4.93,3.983,8.021.568,5.8-.354,11.662-.037,17.484.269,4.887,1.4,9.933-.043,14.619-.611,1.955-1.625,3.757-2.285,5.694a30.668,30.668,0,0,0-1.222,7.655c-.226,2.773-.44,5.645.489,8.271.776,2.2,2.291,4.05,3.372,6.109,1.772,3.409,2.15,8-.513,10.77-2.444,2.529-6.463,2.633-9.878,1.833s-6.72-2.327-10.2-2.474c-6.182-.263-11.693,3.751-17.716,5.052a5.5,5.5,0,0,1-2.474.086,6.109,6.109,0,0,1-1.992-1.087l-3.311-2.383a4.563,4.563,0,0,1-1.6-1.619,4.386,4.386,0,0,1-.208-2.321c1.112-10.312,6.946-20.208,5.26-30.441a39.314,39.314,0,0,0-2.395-7.819c-4.2-10.74-9.231-21.895-7.6-33.312a12.641,12.641,0,0,1,2.841-6.983c1.741-1.869,4.686-2.8,6.94-1.6s3.054,3.861,4.05,6.176a28.468,28.468,0,0,0,8.846,11.411c1.637,1.258,3.623,2.865,5.767,2.92C188.259,438.336,190.7,438.177,193.146,438.226Z" transform="translate(-113.729 -211.497)" fill="#ff6584"/><path d="M246.367,488.036c3.6,4,4.313,9.774,4.71,15.138a311.323,311.323,0,0,1,.116,44.339,22.7,22.7,0,0,1-1.094,6.445,8.037,8.037,0,0,1-4.24,4.759c-1.3.525-3.116.385-3.7-.892-.538-1.167.263-2.444.867-3.6a13.079,13.079,0,0,0,1.32-8.516,3.994,3.994,0,0,0-1.222,2.4l-1.179,4.961c-1.594-.232-2.193-2.181-2.444-3.769-.464-2.883-.91-5.956.244-8.638.611-1.43,1.649-2.645,2.266-4.075a17.79,17.79,0,0,0,1.167-11.485,134.575,134.575,0,0,1-4.374-39.22A16.713,16.713,0,0,0,246.367,488.036Z" transform="translate(-145.423 -238.216)" fill="#ffc1c7"/><path d="M248.226,471.134a54.867,54.867,0,0,0-13.146,1.735,28.467,28.467,0,0,1,0-8.552l1.894-19.549c.141-1.448-.128-14.747,2.676-12.4,1.032.867,2.334,8.638,2.657,9.89.489,1.882.874,3.788,1.222,5.706.7,3.928,1.179,7.893,1.833,11.827C245.55,460.963,247.212,471.134,248.226,471.134Z" transform="translate(-143.879 -217.288)" fill="#ff6584"/><path d="M176.3,349.631a2.633,2.633,0,0,0-.305-1.338,2.242,2.242,0,0,0-1.594-.837c-2.15-.336-4.5.531-6.439-.452-1.051-.531-1.8-1.527-2.816-2.108-2.444-1.362-5.5,0-7.606,1.778a22.157,22.157,0,0,0-7.123,10.849c-.953,3.287-1.338,7.129-4.056,9.2-1.13.855-2.584,1.332-3.409,2.48a6.323,6.323,0,0,0-.9,3.054,20.1,20.1,0,0,0,.134,7.477c.495,1.833,1.46,3.445,2.065,5.217a13.861,13.861,0,0,1-3.781,14.423,4.459,4.459,0,0,0,3.329.574,2.926,2.926,0,0,1-.483,1.472c3.476-.11,6.5-3.5,9.9-2.761,2.6.562,4.05,3.244,5.987,5.07a9,9,0,0,0,9.512,1.937c3.134-1.393,5.04-5.351,3.708-8.516-1.515-3.6-6.188-5.022-7.807-8.553-1.252-2.749-.324-5.968-.611-8.98-.226-2.584-1.344-5-2.04-7.5s-.922-5.364.495-7.538c1.5-2.315,4.38-3.213,7-4.069C175.383,358.587,176.519,355.606,176.3,349.631Z" transform="translate(-107.195 -183.143)" fill="#3f3d56"/><path d="M184.592,425.477c.422-2.077.843-4.276.092-6.268-1.387-3.665-5.938-4.844-9.084-7.221a12.316,12.316,0,0,1-4.044-5.388c-.568-1.5-.648-3.568.757-4.337a3.427,3.427,0,0,1,1.753-.312c4.887.116,9.4,2.78,13.159,5.938a17.72,17.72,0,0,1,5.351,6.573,21.529,21.529,0,0,1,1.222,5.907l.788,6.653a104.949,104.949,0,0,1,.916,11.515,51.623,51.623,0,0,1-.415,6.592,9.529,9.529,0,0,1-1.4,4.429c-1.692,2.37-4.96,2.9-7.874,2.981a13.79,13.79,0,0,1-3.293-.208c-4.844-1.051-8.522-7.838-4.85-12.029,1.558-1.778,3.891-1.833,4.783-4.276C183.6,432.784,183.9,428.856,184.592,425.477Z" transform="translate(-119.141 -205.554)" fill="#ffc1c7"/><path d="M174.726,435.741l3.855,6.249a2.865,2.865,0,0,1,.47,1.075,3.359,3.359,0,0,1-.984,2.2c-3.3,4.5-2.444,10.691-1.466,16.177a29.323,29.323,0,0,1-20.19-23.776c-.483-3.268-1.258-8.65,1.643-10.776C165.012,421.758,171.451,430.384,174.726,435.741Z" transform="translate(-113.215 -214.651)" fill="#ff6584"/><path d="M213.546,413.565c-1.491-.244-3.091,0-4.472-.641-2.444-1.124-2.993-4.276-3.232-6.94,0-.251-.031-.519-.043-.806a21.984,21.984,0,0,1,2.828-2.444,13.9,13.9,0,0,1,2.89-1.277l2.7-.947a15.264,15.264,0,0,1,.611,2.193c.305,1.8.049,3.665.495,5.431A14,14,0,0,0,217.6,412.5l3.977,5.816q-1.081-.257-2.144-.568A9.036,9.036,0,0,0,213.546,413.565Z" transform="translate(-132.615 -204.998)" fill="#3f3d56"/><path d="M1005.252,406.235c-.709-3.439-2.034-6.72-2.834-10.129a42.224,42.224,0,0,0-1.326-5.26,12.551,12.551,0,0,0-1.057-2.15l.379-.354c-1.259-2.126-1.307-4.789-1.9-7.208-.513-2.083-1.533-3.989-2.15-6.042-.855-2.847-.971-6.06-2.737-8.412-.7-.929-1.607-1.656-2.383-2.517-.892-.983-1.594-2.138-2.5-3.1-2.627-2.8-6.585-3.665-10.33-4.069s-7.618-.4-11.069-1.955c-1.448-.654-2.975-1.588-4.49-1.478a21.6,21.6,0,0,1-2.34-2.657,36.122,36.122,0,0,1-3.128-4.429,16.306,16.306,0,0,0,1.674-3.934l.25-.177c.983-.745,1.833-1.717,2.8-2.444.849-.611,1.943-1.252,2.035-2.34s-.892-1.918-1.5-2.816c-2.205-3.219.232-8.259-2.028-11.442-1.13-1.594-3.1-2.2-4.887-2.975-2.443-1.075-4.624-2.621-7.05-3.665s-5.229-1.613-7.673-.611c-4.57,1.894-6.213,8.4-10.856,10.1a2.28,2.28,0,0,0-1.289.764c-.568.929-1.319,6.4-1.185,7.526.177,1.5.537,2.236,1.57,2.761v.965a15.658,15.658,0,0,0,12.493,15.566,10.819,10.819,0,0,1,1.723,2.4,9.168,9.168,0,0,1,.611,2.9,1.761,1.761,0,0,0-.819-.171,2.358,2.358,0,0,0-1.937,1.692,8.342,8.342,0,0,0-.3,2.761,1.875,1.875,0,0,1-.537,1.582,1.643,1.643,0,0,1-.739.232,17.316,17.316,0,0,1-2.859.293c-1.588,0-3.293-.4-4.692.379s-2.034,2.444-2.706,3.953a24.475,24.475,0,0,1-3.806,5.956c-1.711,1.979-3.836,3.855-4.319,6.475a.9.9,0,0,0,0,.183,21.449,21.449,0,0,0-3.665,2.816q-2.76,2.136-5.3,4.539c-1.717,1.656-4.032,3.708-5.095,5.92a8.328,8.328,0,0,1-2.126,2.444c-1.741,1.13-3.989.531-5.95-.1a98.269,98.269,0,0,1-15.975-6.207,1.253,1.253,0,0,0-.855-.214.935.935,0,0,0-.427.281,1.978,1.978,0,0,0-.134-.183c-1.368-1.478-3.519-1.576-4.276-3.836a13.281,13.281,0,0,1-.446-2.193,24.038,24.038,0,0,0-2.3-6.194,2.311,2.311,0,0,0-.757-1.014,1.4,1.4,0,0,0-1.833.58,3.409,3.409,0,0,0-.391,2.1c.049.794.165,1.717-.385,2.285a1.868,1.868,0,0,1-.782.44,7.075,7.075,0,0,1-5.358-.8c-1.649-.861-3.134-2.059-4.765-2.969a24.671,24.671,0,0,0-2.663-1.258c-.941-.391-2.248-.648-2.773.25a2.263,2.263,0,0,0,.489,2.328,18.554,18.554,0,0,0,2.84,3.225c3.177,2.841,7.178,4.423,10.9,6.4a55.638,55.638,0,0,1,9.163,6.109,4.727,4.727,0,0,0-.2,1.094,5.193,5.193,0,0,0,1.7,3.83,14.4,14.4,0,0,0,3.525,2.309q9.7,5.04,19.549,9.817a3.371,3.371,0,0,0,1.362.44c1.332.031,2.181-1.411,3.25-2.242a12.05,12.05,0,0,1,3.733-1.5,23.371,23.371,0,0,0,6.237-3.763l6.25-4.728a63.227,63.227,0,0,0,9.011-7.819A5.634,5.634,0,0,0,934.3,396.4c-.513,1.142.556,2.328.813,3.562a14.5,14.5,0,0,1,.067,2.444,22.4,22.4,0,0,0,.611,3.525,33.654,33.654,0,0,1,.416,5.712c0,2.132.067,4.276.1,6.4a36.459,36.459,0,0,1-.495,8.247c-.788,3.665-2.718,7.147-2.565,10.911a4.2,4.2,0,0,1-.2,2.089c-1.594,3.055-2.853,6.421-4.57,9.426a10.321,10.321,0,0,0-1.222,2.358,4,4,0,0,0,.244,2.609,8.873,8.873,0,0,0-1.118,3.977c-.116,3.452,1.271,6.72,1.936,10.122a58.083,58.083,0,0,1,.7,9.506c.47,14.894,3.384,29.616,3.989,44.5a144.6,144.6,0,0,1-.611,20.575c-.446,4.411-1.105,8.809-1.35,13.244-.7,12.584,1.924,25.047,4.533,37.387a4.887,4.887,0,0,1,3.1-1.68c-.318,1.222-.739,2.81-1.179,3.983a4.623,4.623,0,0,0-1.8.648c-1.521.971-2.041,2.963-2.926,4.576-1.937,3.513-5.742,5.315-8.864,7.728-1.5,1.155-3.006,2.92-2.535,4.8,5.406,1.57,11.3,2.963,16.494.8,2.114-.874,4.093-2.321,6.359-2.395,1.723-.055,3.482.7,5.131.183a1.832,1.832,0,0,0,1.014-.7,2.441,2.441,0,0,0,.269-1.222,81.146,81.146,0,0,0-.037-8.62c-.14-2.444.11-4.276-1.875-4.618a19.361,19.361,0,0,1-1.094-3.806,6.42,6.42,0,0,0-.085-.739,9.085,9.085,0,0,0,1.631-.134,7.926,7.926,0,0,0,.984-.232c-.1-.422-.2-.849-.281-1.271-.171-.849-.305-1.7-.415-2.547s-.189-1.711-.25-2.566c0-.434-.049-.861-.067-1.3-.037-.861-.049-1.723-.043-2.59s0-1.729.061-2.6.085-1.735.147-2.6c.147-2.169.36-4.337.574-6.488q.935-9.475,1.882-18.938c.183-1.894.373-3.794.4-5.694a25.368,25.368,0,0,0-.159-3.4c-.324-2.737-1.185-5.5-1.222-8.2a11.1,11.1,0,0,1,.049-1.35,9.341,9.341,0,0,1,.226-1.344c.055-.244.128-.489.2-.727.153-.483.324-.953.476-1.436.08-.238.153-.483.22-.727a16.484,16.484,0,0,0,.446-3.146c0-.354.043-.709.061-1.063l.751-14.894a20.669,20.669,0,0,1,1.259-7.1,7.581,7.581,0,0,1,1.729-2.5c-.189-.507,0-1.362.525-1.5a126.141,126.141,0,0,1-.226,22.835c-.269,2.382-.666,4.747-.776,7.141-.232,5.278.935,10.5,1.344,15.767s0,10.691,0,16.036c-.043,9.194.971,18.357,1.979,27.49l.611.4c0,.806.092,1.686.08,2.444a2.223,2.223,0,0,0,.079.782h-.257a3.665,3.665,0,0,0-2.871,1.833,11.668,11.668,0,0,0-1.3,3.36,7,7,0,0,0-.367,2.712c.232,1.741,1.711,3.054,2.1,4.765.715,3.1-2.321,6.439-.941,9.286.88,1.833,3.1,2.34,5.034,2.657,2.957.483,6.323.867,8.65-1.093a5.762,5.762,0,0,0,1.986-4.423c0-2.236-1.326-4.227-1.906-6.378-.819-3.018.4-7.074-.886-9.86a2.363,2.363,0,0,0-.477-.794h.44c-.1-1.02-.208-2.047-.318-3.055l1.026-.525a4.307,4.307,0,0,1,3.378-.519c-.409-5.248-.525-11.045.684-16.152.941-4.032,2.627-7.856,3.409-11.925a58.179,58.179,0,0,0,.666-10.214c0-6.341,0-12.725-1.063-18.938-.427-2.492-1.038-5.046-.574-7.539.306-1.643,1.051-3.158,1.491-4.771,1.026-3.769.275-7.819.886-11.686,1.454-9.237,2.224-18.877,3.329-28.156a115.064,115.064,0,0,0,.562-15.834v-.061l2.193-4.276a54.016,54.016,0,0,0,4.117-9.438,6.264,6.264,0,0,1,.788,1.5l9.64-16.018a12.645,12.645,0,0,0,1.472-3.054c.22-.776.293-1.588.458-2.376a30.879,30.879,0,0,1,2.3-5.8A29.426,29.426,0,0,0,1005.252,406.235Zm-14.423,8.039A64.074,64.074,0,0,1,989,422.064c-1.271,4.386-2.743,8.7-4.215,13.018l-1.265,3.665a15.44,15.44,0,0,1-1.943,4.16,8.59,8.59,0,0,0-.519,1c-1.307-4.887.11-10.385-.189-15.6-.226-3.94-1.448-7.942-.531-11.76.611-2.572,2.15-4.783,3.232-7.19,1.008-2.236,1.637-4.673,2.773-6.83a.128.128,0,0,0,.043.116,56.093,56.093,0,0,0,3.623,7.7,6.257,6.257,0,0,1,.886,1.833,5.341,5.341,0,0,1-.042,2.108Z" transform="translate(-385.193 -171.938)" fill="url(#b)"/><path d="M876.677,427.769a12.688,12.688,0,0,1-.464-2.2,23.654,23.654,0,0,0-2.407-6.213,2.265,2.265,0,0,0-.788-1.02,1.509,1.509,0,0,0-1.894.58,3.366,3.366,0,0,0-.409,2.1c.055.806.177,1.729-.391,2.3a2,2,0,0,1-.825.44,7.656,7.656,0,0,1-5.6-.8c-1.729-.861-3.268-2.071-4.973-2.981a26.491,26.491,0,0,0-2.78-1.258c-.984-.4-2.346-.654-2.9.25-.44.721,0,1.643.507,2.334a18.4,18.4,0,0,0,2.969,3.232c3.311,2.853,7.5,4.441,11.387,6.427a58.594,58.594,0,0,1,12.1,8.223,2.626,2.626,0,0,0,.611-1.5c.293-1.558,1.582-4.71.281-6.06C879.682,430.139,877.465,430.042,876.677,427.769Z" transform="translate(-384.473 -211.884)" fill="#a0616a"/><path d="M992,771.368a15.736,15.736,0,0,0,11.5,3.226c.855-.1,1.833-.409,2.114-1.222a2.4,2.4,0,0,0-.159-1.466,26.056,26.056,0,0,1-1.484-4.765c-.214-1.485-.159-3.25-1.369-4.142-1.747-1.289-6.317-1.222-7.453.776C994.883,764.2,993.173,772.352,992,771.368Z" transform="translate(-438.529 -345.708)" fill="#3c354c"/><path d="M1032.239,762.286a1.167,1.167,0,0,0,1,1.454,32.713,32.713,0,0,0,8.651,1.448l-.611-5.877a.911.911,0,0,0-.971-.99c-1.686-.281-5.229-1.423-6.848-.837C1031.634,758.145,1032.275,760.533,1032.239,762.286Z" transform="translate(-454.155 -343.835)" fill="#3c354c"/><path d="M1001.881,371.008a10.386,10.386,0,0,1,.69,3.867c.152,4.734-.66,9.848-3.958,13.244,3.7-1.106,7.862-.44,11.356-2.089a45.675,45.675,0,0,0,4.5-2.926c2.7-1.686,5.846-2.5,8.656-4.007s5.412-4.038,5.571-7.215c-1.222-1.283-3.183-1.466-4.783-2.242a13.531,13.531,0,0,1-4.215-3.867,30.887,30.887,0,0,1-3.751-5.321,10.329,10.329,0,0,1-1.222-6.292c-3.122.562-5.388,3.287-8.339,4.453-1.148.452-2.389.66-3.507,1.179-1.594.733-4.826,3.225-4.887,5.18C998,367.1,1001.051,369.127,1001.881,371.008Z" transform="translate(-440.86 -186.963)" fill="#a0616a"/><path d="M1001.881,371.008a10.386,10.386,0,0,1,.69,3.867c.152,4.734-.66,9.848-3.958,13.244,3.7-1.106,7.862-.44,11.356-2.089a45.675,45.675,0,0,0,4.5-2.926c2.7-1.686,5.846-2.5,8.656-4.007s5.412-4.038,5.571-7.215c-1.222-1.283-3.183-1.466-4.783-2.242a13.531,13.531,0,0,1-4.215-3.867,30.887,30.887,0,0,1-3.751-5.321,10.329,10.329,0,0,1-1.222-6.292c-3.122.562-5.388,3.287-8.339,4.453-1.148.452-2.389.66-3.507,1.179-1.594.733-4.826,3.225-4.887,5.18C998,367.1,1001.051,369.127,1001.881,371.008Z" transform="translate(-440.86 -186.963)" opacity="0.1"/><path d="M1033.177,561.483c-1.155,9.31-1.955,18.987-3.476,28.254-.611,3.879.147,7.942-.923,11.729-.458,1.619-1.222,3.14-1.558,4.783-.483,2.5.153,5.064.611,7.569,1.124,6.262,1.124,12.67,1.106,19.035a50.931,50.931,0,0,1-.69,10.251c-.819,4.087-2.578,7.942-3.562,11.961-1.264,5.132-1.142,10.947-.715,16.213a4.721,4.721,0,0,0-3.531.519,9.777,9.777,0,0,1-3.4,1.3c-1.643.153-3.189-.715-4.606-1.558-1.087-.641-2.034-1.222-3.115-1.882-1.057-9.163-2.114-18.364-2.071-27.594,0-5.364.422-10.74,0-16.091s-1.649-10.532-1.4-15.822c.116-2.407.525-4.777.8-7.166a121.13,121.13,0,0,0,.238-22.915c-.531.135-.745.99-.55,1.5a7.666,7.666,0,0,0-1.833,2.511,20,20,0,0,0-1.313,7.123l-.788,14.949a19.556,19.556,0,0,1-.526,4.221c-.275.983-.69,1.912-.941,2.9-.9,3.58.544,7.27,1,10.929a40.711,40.711,0,0,1-.257,9.127l-1.961,19.011c-.715,6.915-1.411,13.977,0,20.77.092.422.183.849.293,1.277a8.857,8.857,0,0,1-1.026.232,13.167,13.167,0,0,1-3.666,0c-1.136-.116-2.285-.312-3.409-.446-2.7-.306-5.394-.422-7.184,1.619-2.725-12.352-5.461-24.894-4.734-37.521.256-4.448.941-8.864,1.411-13.293a138.632,138.632,0,0,0,.66-20.642c-.611-14.943-3.666-29.72-4.173-44.669a57.155,57.155,0,0,0-.727-9.536c-.7-3.391-2.144-6.72-2.028-10.159s2.627-7.257,6.109-7.068c9.609.531,18.388-4.771,27.973-5.675,4.349-.416,8.773-1.032,13.079-.257s8.6,3.213,10.287,7.245a19.426,19.426,0,0,1,1.057,6.995A132.81,132.81,0,0,1,1033.177,561.483Z" transform="translate(-431.965 -254.061)" fill="#575a89"/><path d="M981.546,775.2c-1.589.977-2.132,2.975-3.055,4.594-2.022,3.525-5.993,5.333-9.255,7.752-1.564,1.167-3.14,2.932-2.645,4.82,5.645,1.57,11.79,2.969,17.233.8,2.205-.88,4.276-2.334,6.64-2.407,1.8-.055,3.665.7,5.358.183a1.833,1.833,0,0,0,1.063-.7,2.446,2.446,0,0,0,.281-1.222,77.217,77.217,0,0,0-.043-8.656c-.171-2.816.208-4.808-3.005-4.686C990.428,775.833,984.747,773.225,981.546,775.2Z" transform="translate(-428.606 -350.503)" fill="#cbceda"/><path d="M1031.054,767.17a6.765,6.765,0,0,0-2.089-.47,3.879,3.879,0,0,0-3,1.833,11.29,11.29,0,0,0-1.356,3.372,6.724,6.724,0,0,0-.379,2.719c.238,1.747,1.784,3.055,2.193,4.777.739,3.109-2.444,6.463-.989,9.322.922,1.833,3.238,2.346,5.26,2.664,3.091.489,6.6.874,9.035-1.1a5.7,5.7,0,0,0,2.077-4.429c-.037-2.248-1.387-4.246-2-6.408-.849-3.055.428-7.1-.922-9.89C1037.731,767.17,1033.516,767.958,1031.054,767.17Z" transform="translate(-451.064 -347.485)" fill="#cbceda"/><circle cx="15.877" cy="15.877" r="15.877" transform="translate(546.177 150.141)" fill="#a0616a"/><path d="M999.1,388.107a8.467,8.467,0,0,0-5.419-.409l-1.448-2.523c-.611-1.112-1.521-2.37-2.8-2.321a2.443,2.443,0,0,0-2.022,1.7,8.07,8.07,0,0,0-.318,2.767,1.832,1.832,0,0,1-.556,1.594,1.947,1.947,0,0,1-.77.232,19.638,19.638,0,0,1-2.988.293c-1.661,0-3.439-.4-4.887.379s-2.12,2.444-2.822,3.971a24.6,24.6,0,0,1-3.971,5.975c-1.79,1.985-4.008,3.867-4.515,6.494-.214,1.118.8,1.949,1.607,2.755,3.207,3.183,7.679,5.138,10.055,8.986a8.142,8.142,0,0,0,1.863,2.529c-.532,1.155.611,2.34.849,3.58a13.968,13.968,0,0,1,.067,2.444,21.8,21.8,0,0,0,.611,3.537,32.643,32.643,0,0,1,.434,5.73l.1,6.427a35.356,35.356,0,0,1-.519,8.278c-.824,3.665-2.84,7.178-2.682,10.947a4.051,4.051,0,0,1-.208,2.1c-1.667,3.055-2.981,6.439-4.771,9.457a10.023,10.023,0,0,0-1.222,2.37,4.665,4.665,0,0,0,1.943,4.716,11.884,11.884,0,0,0,5.034,1.869c16.457,3.152,33.544-.641,49.1-6.872a3.267,3.267,0,0,0,1.118-.611c1.136-1.106.244-2.969-.4-4.411-2.444-5.37-.495-11.607-.843-17.472-.232-3.953-1.515-7.942-.55-11.8.611-2.578,2.242-4.8,3.372-7.208,1.222-2.609,1.906-5.5,3.506-7.881a23.9,23.9,0,0,1,4.172-4.4l9.927-8.846c-1.314-2.132-1.368-4.808-1.986-7.233-.537-2.089-1.607-4.008-2.248-6.06-.892-2.859-1.014-6.109-2.859-8.449-.727-.935-1.674-1.662-2.486-2.523-.929-.99-1.662-2.144-2.609-3.115-2.743-2.81-6.879-3.7-10.782-4.081s-7.942-.4-11.558-1.961c-1.771-.764-3.665-1.918-5.5-1.344a5.356,5.356,0,0,0-2.981,3.287,15.793,15.793,0,0,1-1.979,4.111A12.607,12.607,0,0,1,999.1,388.107Z" transform="translate(-428.631 -196.071)" fill="#3c354c"/><path d="M923.239,438.028a8.512,8.512,0,0,1-2.224,2.444c-1.833,1.13-4.16.531-6.206-.1a105.651,105.651,0,0,1-16.684-6.231,1.319,1.319,0,0,0-.892-.214,1.221,1.221,0,0,0-.611.44,25.976,25.976,0,0,0-2.291,2.938A6.718,6.718,0,0,0,893,440.594a5.131,5.131,0,0,0,1.765,3.843,15.23,15.23,0,0,0,3.665,2.315q10.135,5.058,20.4,9.854a3.609,3.609,0,0,0,1.424.44c1.393.031,2.278-1.417,3.39-2.248a13.245,13.245,0,0,1,3.9-1.5,24.386,24.386,0,0,0,6.518-3.775l6.524-4.741c5.718-4.154,11.723-8.681,14.222-15.272l-7.941-2.615c-2.383-.788-4.887-1.985-7.361-2.444-1.833-.354-4.038,2.065-5.413,3.1a70.137,70.137,0,0,0-5.565,4.588C926.77,433.745,924.351,435.81,923.239,438.028Z" transform="translate(-400.008 -214.299)" fill="#3c354c"/><path d="M1054.152,529.3c-2.242.892-4.783-.452-7.16-.055a9.867,9.867,0,0,0-3.14,1.3l-6.94,3.879c-.427.232-.891.8-.519,1.106a.744.744,0,0,0,.36.122c2.315.3,4.478-1.112,6.781-1.5a15.7,15.7,0,0,1,3.055-.116,1.22,1.22,0,0,1,.495.073,1.026,1.026,0,0,1,.513.971c0,.391-.116.77-.128,1.161a4.277,4.277,0,0,0,1.008,2.444,74.74,74.74,0,0,0,7.33,8.956,15.619,15.619,0,0,0,1.747-2.761l2.285-4.276c2.37-4.411,4.8-8.986,5.174-13.977-1.711-.544-4.887-2.346-6.653-1.4S1056.186,528.649,1054.152,529.3Z" transform="translate(-455.75 -253.421)" fill="#a0616a"/><path d="M992.9,335.226c4.472.477,8.552,2.59,12.554,4.667-.684,1.075.183,2.621,1.4,2.987a4.236,4.236,0,0,0,3.58-.9c1.032-.751,1.881-1.723,2.92-2.444.892-.611,2.028-1.258,2.126-2.346s-.928-1.924-1.57-2.828c-2.3-3.232.244-8.29-2.114-11.485-1.185-1.6-3.244-2.205-5.07-2.987-2.529-1.075-4.832-2.627-7.367-3.7s-5.455-1.625-8.009-.611c-4.777,1.9-6.488,8.43-11.338,10.135a2.443,2.443,0,0,0-1.35.77c-.611.929-1.375,6.421-1.222,7.551.232,1.888.752,2.584,2.609,3.146C984.017,338.366,988.647,334.768,992.9,335.226Z" transform="translate(-432.855 -171.743)" fill="#3f3d56"/><path d="M1085.472,431a12.687,12.687,0,0,1,3.268,4.728,40.185,40.185,0,0,1,1.381,5.278c.837,3.433,2.217,6.72,2.957,10.165a28.445,28.445,0,0,1-1.833,17.521,30.315,30.315,0,0,0-2.407,5.822c-.171.788-.25,1.607-.476,2.383a12.73,12.73,0,0,1-1.539,3.055L1076.8,496.072a7.166,7.166,0,0,0-4.276-4.056,11.437,11.437,0,0,0-5.987-.361c.745-1.173,1.075-2.486,1.833-3.665a20.479,20.479,0,0,0,1.142-1.943,20.143,20.143,0,0,0,.892-2.23l1.313-3.708c1.539-4.331,3.055-8.662,4.4-13.061a61.64,61.64,0,0,0,1.931-7.819,5.372,5.372,0,0,0,.049-2.046,6.364,6.364,0,0,0-.929-1.869,55.765,55.765,0,0,1-3.781-7.722c-.794-1.863-1.594-3.959-.88-5.852a7.42,7.42,0,0,1,1.967-2.6A58.121,58.121,0,0,1,1085.472,431Z" transform="translate(-467.533 -216.862)" fill="#3c354c"/><path d="M1011.867,697.152l.733-1.509c-1.405-6.781-.708-13.843,0-20.771l1.961-19.011a41.918,41.918,0,0,0,.256-9.127c-.458-3.665-1.9-7.331-1-10.929.25-.99.666-1.918.941-2.9a19.538,19.538,0,0,0,.525-4.221l.788-14.949a20,20,0,0,1,1.313-7.123V606.2l-2.517-21.662-6.647,112.612Z" transform="translate(-444.84 -276.605)" opacity="0.1"/><path d="M915.619,736.96c1.833-3.366-.244-7.5-2.621-10.5s-5.26-6.109-5.2-9.952c.092-5.5,5.926-8.742,10.587-11.662a51.312,51.312,0,0,0,9.506-7.642,13.927,13.927,0,0,0,2.92-3.91c.966-2.15.941-4.594.88-6.946q-.312-11.766-1.167-23.513" transform="translate(-405.766 -307.072)" fill="none" stroke="#3f3d56" stroke-miterlimit="10" stroke-width="4"/><path d="M948.624,656.932a8.553,8.553,0,0,0-4.276-7.025l-1.918,3.8.061-4.6a8.681,8.681,0,0,0-2.828-.342,8.553,8.553,0,1,0,8.968,8.168Z" transform="translate(-415.001 -301.592)" fill="#57b894"/><path d="M924.191,749.185a8.552,8.552,0,1,1,.416-6.9l-5.358,4.38,5.9-1.362A8.552,8.552,0,0,1,924.191,749.185Z" transform="translate(-405.859 -335.815)" fill="#57b894"/><path d="M921.718,718.963A8.552,8.552,0,0,1,919,702.145l-.049,3.531,1.943-3.843h0a8.552,8.552,0,0,1,8.962,8.161,8.459,8.459,0,0,1-.366,2.926A8.552,8.552,0,0,1,921.718,718.963Z" transform="translate(-407.619 -322.241)" fill="#57b894"/><path d="M955.972,696.319a8.552,8.552,0,1,1,3.794-16.048l-1.515,4.154,3.116-2.993a8.551,8.551,0,0,1,2.767,5.919,8.416,8.416,0,0,1-.214,2.364A8.552,8.552,0,0,1,955.972,696.319Z" transform="translate(-421.06 -313.445)" fill="#57b894"/><path d="M947.5,662.207c-1.979.214-3.9.831-5.889.953s-4.166-.348-5.425-1.894a26.535,26.535,0,0,1-1.582-2.792,6.107,6.107,0,0,0-2.163-2.034,8.553,8.553,0,1,0,16.03,5.693Q947.984,662.152,947.5,662.207Z" transform="translate(-415.027 -304.582)" opacity="0.1"/><path d="M955.9,699.428a8.553,8.553,0,0,1-8.156-12.218,6.33,6.33,0,0,1,1.723,1.723,28.048,28.048,0,0,0,1.7,2.835c1.338,1.57,3.616,2.083,5.687,1.991s4.068-.684,6.109-.874c.287,0,.574-.043.867-.049A8.553,8.553,0,0,1,955.9,699.428Z" transform="translate(-420.985 -316.555)" opacity="0.1"/><path d="M921.827,722.191A8.552,8.552,0,0,1,913.6,710.12a7.016,7.016,0,0,1,1.833,1.741,28.8,28.8,0,0,0,1.863,2.9c1.448,1.607,3.879,2.175,6.066,2.126s4.172-.568,6.28-.733A8.552,8.552,0,0,1,921.827,722.191Z" transform="translate(-407.728 -325.469)" opacity="0.1"/><path d="M924.046,752.675a8.563,8.563,0,1,1-15.633-6.995,8.456,8.456,0,0,1,1.881,1.68,37.343,37.343,0,0,0,2.3,3.054c1.753,1.723,4.582,2.444,7.1,2.5a36.624,36.624,0,0,0,4.35-.238Z" transform="translate(-405.714 -339.306)" opacity="0.1"/><path d="M899.43,775.491s6.769-.208,8.809-1.662,10.385-3.183,10.911-.855,10.172,11.607,2.535,11.644-17.753-1.185-19.793-2.444S899.43,775.491,899.43,775.491Z" transform="translate(-402.51 -349.483)" fill="#656380"/><path d="M921.819,786.129c-7.642.061-17.753-1.222-19.787-2.444-1.552-.947-2.169-4.331-2.376-5.9h-.226s.428,5.461,2.444,6.72,12.151,2.486,19.793,2.443c2.205,0,2.963-.8,2.92-1.961C924.3,785.677,923.462,786.11,921.819,786.129Z" transform="translate(-402.51 -351.8)" opacity="0.2"/><path d="M134.147,747.96c-1.833-3.366.244-7.5,2.621-10.5s5.26-6.109,5.2-9.952c-.092-5.5-5.926-8.742-10.587-11.662a51.318,51.318,0,0,1-9.505-7.642,13.925,13.925,0,0,1-2.92-3.91c-.965-2.15-.941-4.594-.88-6.946q.312-11.766,1.167-23.513" transform="translate(-98.471 -311.352)" fill="none" stroke="#3f3d56" stroke-miterlimit="10" stroke-width="4"/><path d="M105.481,667.932a8.552,8.552,0,0,1,4.276-7.025l1.918,3.8-.061-4.6a8.692,8.692,0,0,1,2.828-.342,8.553,8.553,0,1,1-8.968,8.168Z" transform="translate(-93.574 -305.872)" fill="#57b894"/><path d="M129.929,760.184a8.553,8.553,0,1,0-.415-6.9l5.358,4.356L129,756.275A8.553,8.553,0,0,0,129.929,760.184Z" transform="translate(-102.731 -340.095)" fill="#57b894"/><path d="M132.26,729.963a8.552,8.552,0,0,0,2.718-16.818l.049,3.531-1.943-3.843h0a8.553,8.553,0,0,0-8.962,8.162,8.456,8.456,0,0,0,.367,2.926,8.553,8.553,0,0,0,7.771,6.042Z" transform="translate(-100.83 -326.521)" fill="#57b894"/><path d="M98.167,707.319a8.553,8.553,0,1,0-3.794-16.048l1.515,4.154-3.116-2.993a8.552,8.552,0,0,0-2.78,5.92,8.424,8.424,0,0,0,.214,2.364A8.553,8.553,0,0,0,98.167,707.319Z" transform="translate(-87.549 -317.726)" fill="#57b894"/><path d="M106.761,673.207c1.979.214,3.9.831,5.889.953s4.166-.348,5.425-1.894a26.519,26.519,0,0,0,1.582-2.792,6.107,6.107,0,0,1,2.163-2.034,8.552,8.552,0,1,1-16.03,5.693Q106.273,673.152,106.761,673.207Z" transform="translate(-93.7 -308.862)" opacity="0.1"/><path d="M98.329,710.428a8.552,8.552,0,0,0,8.155-12.218,6.333,6.333,0,0,0-1.723,1.723,28.04,28.04,0,0,1-1.7,2.835c-1.338,1.57-3.617,2.083-5.687,1.991s-4.069-.684-6.109-.873c-.287,0-.574-.043-.867-.049A8.553,8.553,0,0,0,98.329,710.428Z" transform="translate(-87.712 -320.835)" opacity="0.1"/><path d="M132.489,733.191a8.552,8.552,0,0,0,8.223-12.071,7.014,7.014,0,0,0-1.833,1.741c-.666.941-1.081,2.028-1.833,2.9-1.448,1.607-3.879,2.175-6.066,2.126s-4.172-.568-6.28-.733a8.552,8.552,0,0,0,7.789,6.042Z" transform="translate(-101.058 -329.749)" opacity="0.1"/><path d="M130.52,763.675a8.563,8.563,0,1,0,15.633-6.995,8.458,8.458,0,0,0-1.882,1.68,37.3,37.3,0,0,1-2.3,3.054c-1.753,1.723-4.582,2.444-7.1,2.5a36.584,36.584,0,0,1-4.35-.238Z" transform="translate(-103.323 -343.586)" opacity="0.1"/><path d="M149.529,786.491s-6.769-.208-8.809-1.661-10.385-3.183-10.911-.855-10.171,11.607-2.535,11.644,17.753-1.185,19.793-2.444S149.529,786.491,149.529,786.491Z" transform="translate(-100.92 -353.763)" fill="#656380"/><path d="M127.156,797.129c7.642.061,17.753-1.222,19.787-2.444,1.552-.947,2.169-4.331,2.376-5.9h.226s-.428,5.461-2.444,6.72-12.151,2.486-19.793,2.444c-2.205,0-2.963-.8-2.92-1.961C124.676,796.677,125.513,797.11,127.156,797.129Z" transform="translate(-100.937 -356.08)" opacity="0.2"/></g></svg>