<svg xmlns="http://www.w3.org/2000/svg" xmlns:xlink="http://www.w3.org/1999/xlink" width="221.153" height="170.5" viewBox="0 0 221.153 170.5"><defs><linearGradient id="a" x1="0.5" y1="1" x2="0.5" gradientUnits="objectBoundingBox"><stop offset="0" stop-color="gray" stop-opacity="0.251"/><stop offset="0.54" stop-color="gray" stop-opacity="0.122"/><stop offset="1" stop-color="gray" stop-opacity="0.102"/></linearGradient><linearGradient id="c" x1="0.5" y1="1" x2="0.5" gradientUnits="objectBoundingBox"><stop offset="0" stop-opacity="0.122"/><stop offset="0.55" stop-opacity="0.09"/><stop offset="1" stop-opacity="0.02"/></linearGradient></defs><rect width="205.036" height="151.232" transform="translate(16.117 19.268)" fill="#6c63ff" opacity="0.2"/><path d="M0,0V163.593H205.763V0Z" fill="url(#a)"/><rect width="200" height="150" transform="translate(3.327 10.5)" fill="#fff"/><rect width="200" height="8" transform="translate(3.327 2.5)" fill="#f5f5f5"/><ellipse cx="2.5" cy="1.5" rx="2.5" ry="1.5" transform="translate(6.327 4.5)" fill="#ff5252"/><ellipse cx="2" cy="1.5" rx="2" ry="1.5" transform="translate(12.327 4.5)" fill="#ff0"/><circle cx="1.5" cy="1.5" r="1.5" transform="translate(18.327 4.5)" fill="#69f0ae"/><rect width="100" height="150" transform="translate(103.327 10.5)" fill="#00aa67"/><rect width="56" height="6" transform="translate(18.327 62.5)" fill="url(#a)"/><rect width="55" height="6" transform="translate(124.327 62.5)" fill="url(#c)"/><rect width="54" height="4" transform="translate(19.327 63.5)" fill="#00aa67"/><rect width="73" height="4" transform="translate(11.327 75.5)" fill="url(#a)"/><rect width="72" height="4" transform="translate(117.327 75.5)" fill="url(#c)"/><rect width="72" height="3" transform="translate(117.327 82.5)" fill="url(#c)"/><rect width="72" height="4" transform="translate(117.327 87.5)" fill="url(#c)"/><rect width="72" height="3" transform="translate(117.327 94.5)" fill="url(#c)"/><rect width="72" height="3" transform="translate(117.327 100.5)" fill="url(#c)"/><rect width="73" height="3" transform="translate(11.327 82.5)" fill="url(#a)"/><rect width="73" height="4" transform="translate(11.327 87.5)" fill="url(#a)"/><rect width="73" height="3" transform="translate(11.327 94.5)" fill="url(#a)"/><rect width="73" height="3" transform="translate(11.327 100.5)" fill="url(#a)"/><rect width="72" height="2" transform="translate(12.327 76.5)" fill="#00aa67"/><rect width="72" height="2" transform="translate(12.327 82.5)" fill="#00aa67"/><rect width="72" height="2" transform="translate(12.327 88.5)" fill="#00aa67"/><rect width="72" height="3" transform="translate(12.327 94.5)" fill="#00aa67"/><rect width="72" height="1" transform="translate(12.327 101.5)" fill="#00aa67"/><rect width="52" height="4" transform="translate(126.327 63.5)" fill="#fff"/><rect width="72" height="2" transform="translate(117.327 76.5)" fill="#fff"/><rect width="72" height="2" transform="translate(117.327 82.5)" fill="#fff"/><rect width="72" height="2" transform="translate(117.327 88.5)" fill="#fff"/><rect width="72" height="3" transform="translate(117.327 94.5)" fill="#fff"/><rect width="72" height="1" transform="translate(117.327 101.5)" fill="#fff"/></svg>