<svg id="why_us" data-name="why us" xmlns="http://www.w3.org/2000/svg" width="559.262" height="463.508" viewBox="0 0 559.262 463.508">
  <circle id="Ellipse_40" data-name="Ellipse 40" cx="11.745" cy="11.745" r="11.745" transform="translate(93.056 6.216)" fill="#f1f1f1"/>
  <circle id="Ellipse_41" data-name="Ellipse 41" cx="7.409" cy="7.409" r="7.409" transform="translate(151.517 36.022)" fill="#f1f1f1"/>
  <circle id="Ellipse_42" data-name="Ellipse 42" cx="5.291" cy="5.291" r="5.291" transform="translate(203.779 60.426)" fill="#f1f1f1"/>
  <circle id="Ellipse_43" data-name="Ellipse 43" cx="11.745" cy="11.745" r="11.745" transform="translate(446.235 6.216)" fill="#f1f1f1"/>
  <circle id="Ellipse_44" data-name="Ellipse 44" cx="7.409" cy="7.409" r="7.409" transform="translate(396.445 36.022)" fill="#f1f1f1"/>
  <circle id="Ellipse_45" data-name="Ellipse 45" cx="5.291" cy="5.291" r="5.291" transform="translate(348.418 60.426)" fill="#f1f1f1"/>
  <ellipse id="Ellipse_46" data-name="Ellipse 46" cx="62.881" cy="7.164" rx="62.881" ry="7.164" transform="translate(223.914 409.325)" fill="#f1f1f1"/>
  <path id="Path_137" data-name="Path 137" d="M556.5,421.151l-424.985-2.864L135.8,127.046,560.794,133.3Z" transform="translate(-46.009 -44.435)" fill="#f1f1f1"/>
  <line id="Line_7" data-name="Line 7" x2="557.169" transform="translate(1.046 461.859)" fill="none" stroke="#3f3d56" stroke-miterlimit="10" stroke-width="2"/>
  <line id="Line_8" data-name="Line 8" x2="557.169" transform="translate(1.046 1)" fill="none" stroke="#3f3d56" stroke-miterlimit="10" stroke-width="2"/>
  <path id="Path_138" data-name="Path 138" d="M748.079,2.447,539.446,86.7V374.242L748.079,462.51Z" transform="translate(-189.818 -0.51)" fill="#3f3d56" stroke="#3f3d56" stroke-miterlimit="10" stroke-width="2"/>
  <line id="Line_9" data-name="Line 9" x2="149.787" y2="34.772" transform="translate(367.015 312.212)" fill="none" stroke="#fff" stroke-miterlimit="10" stroke-width="2"/>
  <line id="Line_10" data-name="Line 10" x2="149.787" y2="22.735" transform="translate(367.015 289.476)" fill="none" stroke="#fff" stroke-miterlimit="10" stroke-width="2"/>
  <line id="Line_11" data-name="Line 11" x2="149.787" y2="16.048" transform="translate(367.015 265.403)" fill="none" stroke="#fff" stroke-miterlimit="10" stroke-width="2"/>
  <path id="Path_139" data-name="Path 139" d="M703.189,283.285v34.772l-120.366-8.024V283.285Z" transform="translate(-205.109 -99.513)" fill="#00db91"/>
  <path id="Path_140" data-name="Path 140" d="M703.189,283.285v34.772l-120.366-8.024V308.7l117.69,6.687v-32.1Z" transform="translate(-205.109 -99.513)" opacity="0.2"/>
  <path id="Path_141" data-name="Path 141" d="M1,2.447,209.633,86.7V374.242L1,462.51Z" transform="translate(0 -0.51)" fill="#3f3d56" stroke="#3f3d56" stroke-miterlimit="10" stroke-width="2"/>
  <line id="Line_12" data-name="Line 12" x1="149.788" y2="34.772" transform="translate(42.459 312.212)" fill="none" stroke="#fff" stroke-miterlimit="10" stroke-width="2"/>
  <line id="Line_13" data-name="Line 13" x1="149.788" y2="22.735" transform="translate(42.459 289.476)" fill="none" stroke="#fff" stroke-miterlimit="10" stroke-width="2"/>
  <line id="Line_14" data-name="Line 14" x1="149.788" y2="16.048" transform="translate(42.459 265.403)" fill="none" stroke="#fff" stroke-miterlimit="10" stroke-width="2"/>
  <path id="Path_142" data-name="Path 142" d="M93.95,283.285v34.772l120.366-8.024V283.285Z" transform="translate(-32.768 -99.513)" fill="#00db91"/>
  <path id="Path_143" data-name="Path 143" d="M93.95,283.285v34.772l120.366-8.024V308.7L96.625,315.382v-32.1Z" transform="translate(-32.768 -99.513)" opacity="0.2"/>
  <line id="Line_15" data-name="Line 15" x2="104.638" y2="1.287" transform="translate(229.071 109.473)" fill="none" stroke="#3f3d56" stroke-miterlimit="10" stroke-width="2"/>
  <path id="Path_144" data-name="Path 144" d="M356.71,171.028l.9-.938-4.624-4.4,4.73-4.29-.871-.959-5.76,5.226Z" transform="translate(-123.413 -56.206)" fill="#3f3d56"/>
  <path id="Path_145" data-name="Path 145" d="M507.658,172.853l-.871-.96,4.73-4.288-4.623-4.405.895-.937,5.63,5.366Z" transform="translate(-178.304 -56.85)" fill="#3f3d56"/>
  <circle id="Ellipse_47" data-name="Ellipse 47" cx="8.755" cy="8.755" r="8.755" transform="translate(272.635 101.361)" fill="#3f3d56"/>
  <path id="Path_146" data-name="Path 146" d="M583.678,692.069s-2.388,10.347-1.592,14.327.8,12.735.8,12.735h2.388V709.58s6.368,3.184,7.96,7.959,18.307,3.184,19.1,1.592-7.96-4.776-7.96-4.776l-7.164-21.491Z" transform="translate(-313.997 -303.836)" fill="#2f2e41"/>
  <path id="Path_147" data-name="Path 147" d="M576.028,540.164s3.98,14.327,3.98,19.9-3.184,77.208,0,77.208,15.919,1.592,16.715-1.592-1.592-32.634,0-35.818,12.735-70.84,11.939-71.636S580.008,525.041,576.028,540.164Z" transform="translate(-311.918 -245.854)" fill="#2f2e41"/>
  <path id="Path_148" data-name="Path 148" d="M571.7,524.376s-7.164,19.1-.8,19.1,10.347-5.572,15.123-3.98,19.1-18.307,19.1-18.307Z" transform="translate(-309.182 -243.597)" fill="#3f3d56"/>
  <circle id="Ellipse_48" data-name="Ellipse 48" cx="12.735" cy="12.735" r="12.735" transform="translate(279.631 175.314)" fill="#ffb9b9"/>
  <path id="Path_149" data-name="Path 149" d="M619.1,388.822s-5.572,18.307-3.98,20.695-15.123-.8-15.123-.8,5.572-15.123,4.776-18.307S619.1,388.822,619.1,388.822Z" transform="translate(-320.369 -196.793)" fill="#ffb9b9"/>
  <path id="Path_150" data-name="Path 150" d="M597.305,407.516s-7.164-2.388-9.551,0-11.143,58.9-16.715,64.472-9.552,13.531-4.776,14.327,43.778,5.572,45.369,3.184,1.194-25.869.4-31.44S605.265,408.312,597.305,407.516Z" transform="translate(-307.725 -203.149)" fill="#00db91"/>
  <path id="Path_151" data-name="Path 151" d="M436.869,435.064l3.184,7.96,7.164-5.572-.8-5.571Z" transform="translate(-153.656 -151.897)" fill="#ffb9b9"/>
  <path id="Path_152" data-name="Path 152" d="M591.863,426.364s-.4-9.949-5.174,2.786-15.123,29.45-6.368,42.186,9,18.292,13.133,17.909,17.113,4.378,17.113,2.786-15.123-26.267-15.123-26.267a14.653,14.653,0,0,1,3.98-12.735C605,447.457,602.21,428.752,591.863,426.364Z" transform="translate(-312.232 -208.864)" opacity="0.1"/>
  <path id="Path_153" data-name="Path 153" d="M595.3,412.976s-8.755-1.592-13.531,11.143-15.123,29.45-6.368,42.186,13.219,25.441,17.355,25.058,12.891-2.771,12.891-4.363-15.123-26.267-15.123-26.267A14.653,14.653,0,0,1,594.508,448C600.079,442.427,605.651,415.364,595.3,412.976Z" transform="translate(-310.499 -205.426)" fill="#00db91"/>
  <path id="Path_154" data-name="Path 154" d="M592.078,353.388c-6.549-.925-13.006,3.225-16.628,8.759s-4.934,12.233-5.888,18.778a22.441,22.441,0,0,1-1.347,5.779c-1.583,3.636-5.167,6.381-5.751,10.3-.369,2.481.555,4.944,1.038,7.405,1.283,6.538-.618,13.413-4.1,19.09-1.556,2.534-3.825,5.095-6.8,5.186l6.23.966a10.874,10.874,0,0,1-5.156,5.268,31.565,31.565,0,0,0,27.61-30.062c.09-2.255-.019-4.676,1.206-6.572,1.06-1.64,2.91-2.55,4.591-3.543,5.775-3.414,10.6-9.074,11.372-15.738.339-2.929-.108-5.861-.224-8.788-.122-3.085,5.058-5.167,5.756-8.12C605.046,357.61,596.2,353.97,592.078,353.388Z" transform="translate(-303.659 -184.396)" fill="#2f2e41"/>
</svg>
